<svg viewBox="0 0 24 24" fill="none" xmlns="http://www.w3.org/2000/svg">
<path d="M11.9998 9.34766C10.565 9.34766 9.34766 10.565 9.34766 11.9998C9.34766 13.4346 10.5216 14.652 11.9998 14.652C13.4781 14.652 14.652 13.4346 14.652 11.9998C14.652 10.565 13.4346 9.34766 11.9998 9.34766ZM11.9998 13.7824C10.9998 13.7824 10.2172 12.9564 10.2172 11.9998C10.2172 11.0433 10.9998 10.2172 11.9998 10.2172C12.9998 10.2172 13.7824 11.0433 13.7824 11.9998C13.7824 12.9564 12.9564 13.7824 11.9998 13.7824Z" fill="currentColor"/>
<path fill-rule="evenodd" clip-rule="evenodd" d="M20.9565 11.5652H23.5652C23.8261 11.5652 24 11.7391 24 12C24 12.2609 23.8261 12.4348 23.5652 12.4348H20.9565C20.7391 17.0435 17.0435 20.7391 12.4348 20.9565V23.5652C12.4348 23.8261 12.2609 24 12 24C11.7391 24 11.5652 23.8261 11.5652 23.5652V20.9565C6.95652 20.7391 3.26087 17.0435 3.04348 12.4348H0.434783C0.217391 12.4348 0 12.2609 0 12C0 11.7391 0.173913 11.5652 0.434783 11.5652H3.04348C3.26087 6.95652 6.95652 3.26087 11.5652 3.04348V0.434783C11.5652 0.173913 11.7391 0 12 0C12.2609 0 12.4348 0.173913 12.4348 0.434783V3.04348C17.0435 3.26087 20.7391 6.95652 20.9565 11.5652ZM20.087 11.5652C19.8696 7.43478 16.5652 4.13043 12.4348 3.91304V6.26087H11.5652V3.91304C7.43478 4.13043 4.13043 7.43478 3.91304 11.5652H6.26087V12.4348H3.91304C4.13043 16.5652 7.43478 19.8696 11.5652 20.087V17.7391H12.4348V20.087C16.5652 19.8696 19.8696 16.5652 20.087 12.4348H17.7391V11.5652H20.087Z" fill="currentColor"/>
</svg>
