<svg viewBox="0 0 16 16" fill="none" xmlns="http://www.w3.org/2000/svg">
<path d="M15.3569 4.33934C14.9504 3.50781 14.3529 2.80338 13.581 2.24563C12.2126 1.25697 10.2827 0.734375 8 0.734375C5.71728 0.734375 3.78741 1.25694 2.41903 2.24563C1.64709 2.80338 1.04956 3.50781 0.643062 4.33934C0.216375 5.21222 0 6.22828 0 7.35938C0 9.80575 1.00891 11.6772 2.92547 12.803C2.66034 13.7383 2.31634 14.3052 2.31325 14.3102L1.72003 15.264L2.84363 15.2656H2.84687C2.85009 15.2656 2.85337 15.2656 2.85684 15.2656C3.21144 15.2656 4.83828 15.1891 6.16106 13.8622C6.74419 13.9433 7.36119 13.9844 8 13.9844C10.2827 13.9844 12.2126 13.4618 13.581 12.4731C14.3529 11.9153 14.9504 11.2109 15.3569 10.3794C15.7836 9.50653 16 8.49047 16 7.35938C16 6.22828 15.7836 5.21219 15.3569 4.33934ZM12.8489 11.4599C11.6949 12.2937 10.0182 12.7344 8 12.7344C7.30653 12.7344 6.64484 12.6817 6.03328 12.5778L5.68528 12.5188L5.455 12.7863C4.96019 13.3609 4.38894 13.6678 3.904 13.8312C4.02994 13.4915 4.15747 13.0837 4.26038 12.6192L4.36647 12.1404L3.92669 11.9235C2.15056 11.0474 1.25 9.51178 1.25 7.35938C1.25 5.54991 1.88962 4.17028 3.15112 3.25884C4.30506 2.42509 5.98178 1.98438 8 1.98438C10.0182 1.98438 11.6949 2.42506 12.8489 3.25884C14.1104 4.17028 14.75 5.54994 14.75 7.35938C14.75 9.16881 14.1104 10.5484 12.8489 11.4599Z" fill="currentColor"/>
<circle cx="5" cy="7.5" r="1" fill="currentColor"/>
<circle cx="8" cy="7.5" r="1" fill="currentColor"/>
<circle cx="11" cy="7.5" r="1" fill="currentColor"/>
</svg>
