<svg viewBox="0 0 24 24" fill="none" xmlns="http://www.w3.org/2000/svg">
<path d="M16.1739 15.6522C15.8859 15.6522 15.6522 15.8859 15.6522 16.1739V21.3913C15.6522 22.2543 14.9499 22.9565 14.0869 22.9565H2.60868C1.74571 22.9565 1.04346 22.2543 1.04346 21.3913V2.60873C1.04346 1.74575 1.74571 1.04351 2.60868 1.04351H14.0869C14.9499 1.04351 15.6522 1.74575 15.6522 2.60873V7.82608C15.6522 8.11408 15.8859 8.34784 16.1739 8.34784C16.4619 8.34784 16.6957 8.11408 16.6957 7.82608V2.60868C16.6956 1.17078 15.5248 0 14.0869 0H2.60868C1.17078 0 0 1.17078 0 2.60868V21.3913C0 22.8292 1.17078 24 2.60868 24H14.0869C15.5248 24 16.6956 22.8292 16.6956 21.3913V16.1739C16.6956 15.8859 16.4619 15.6522 16.1739 15.6522Z" fill="currentColor"/>
<path d="M23.9586 11.8012C23.9346 11.7438 23.8992 11.6926 23.8564 11.6478C23.8522 11.6436 23.8511 11.6373 23.8459 11.6331L19.672 7.45925C19.4686 7.25577 19.1378 7.25577 18.9343 7.45925C18.7308 7.66273 18.7308 7.99353 18.9343 8.197L22.2171 11.4798H9.91238C9.62438 11.4798 9.39062 11.7136 9.39062 12.0016C9.39062 12.2896 9.62438 12.5233 9.91238 12.5233H22.2181L18.9343 15.8071C18.7308 16.0106 18.7308 16.3414 18.9343 16.5449C19.0366 16.6451 19.1701 16.6962 19.3037 16.6962C19.4373 16.6962 19.5708 16.6451 19.6731 16.5438L23.847 12.3699C23.8699 12.347 23.8804 12.3177 23.8981 12.2927C23.919 12.2624 23.944 12.2363 23.9586 12.2019C24.0119 12.0735 24.0118 11.9295 23.9586 11.8012Z" fill="currentColor"/>
</svg>
