<svg width="25" height="20" viewBox="0 0 25 20" fill="none" xmlns="http://www.w3.org/2000/svg">
<path d="M22.6171 2.19475C21.7076 1.24638 20.4229 0.75252 19.1123 0.847499C17.44 1.01708 16.1399 2.22302 15.5275 2.90606C14.9151 2.22302 13.615 1.02179 11.938 0.847499C10.6274 0.75252 9.34267 1.24638 8.43321 2.19475C7.67691 2.87209 7.19713 3.80468 7.08596 4.81389C6.32954 4.27846 5.43098 3.98004 4.50451 3.95654C3.32773 3.99494 2.21165 4.48797 1.39076 5.33206C0.309067 6.33049 -0.188263 7.81188 0.0717665 9.26076C0.58523 12.8833 4.78244 17.3584 8.27305 19.1108C8.40636 19.178 8.5637 19.178 8.69701 19.1108C10.6174 18.0698 12.3345 16.691 13.7657 15.0408C14.2607 15.3889 14.7785 15.7037 15.3155 15.9829C15.4488 16.0501 15.6062 16.0501 15.7395 15.9829C19.2065 14.2352 23.4273 9.74596 23.936 6.12345C24.1961 4.67457 23.6987 3.19318 22.6171 2.19475ZM8.48503 18.1639C5.26764 16.4445 1.46613 12.3934 1.00448 9.12886C0.786906 7.98611 1.1753 6.8121 2.03141 6.02453C2.68142 5.34808 3.5672 4.9482 4.50451 4.9081C6.52539 4.9081 8.08462 7.03732 8.09875 7.06088C8.18667 7.18442 8.32869 7.25802 8.48032 7.25873C8.63194 7.25802 8.77397 7.18442 8.86188 7.06088C8.86188 7.06088 10.4305 4.9081 12.475 4.9081C13.4123 4.9482 14.2981 5.34808 14.9481 6.02453C15.8059 6.81109 16.1961 7.98529 15.9797 9.12886C15.5039 12.3934 11.7024 16.4445 8.48503 18.1639ZM23.0033 5.99156C22.5322 9.25134 18.7637 13.3072 15.5227 15.0219C15.1229 14.8066 14.7346 14.5708 14.3592 14.3153C15.6735 12.6713 16.6486 10.8812 16.8794 9.26076C17.1394 7.81188 16.6421 6.33049 15.5604 5.33206C14.745 4.4981 13.6405 4.00907 12.4749 3.96597C10.6142 3.96597 9.17744 5.30851 8.4991 6.04337C8.37191 5.89734 8.21175 5.73247 8.02804 5.57231C7.95561 4.56599 8.34783 3.58193 9.09265 2.90135C9.80702 2.14458 10.8188 1.74129 11.8578 1.79906C13.7421 1.98748 15.1553 3.91886 15.1553 3.9377C15.2432 4.06124 15.3852 4.13484 15.5368 4.13555C15.6885 4.13484 15.8305 4.06124 15.9184 3.9377C15.9184 3.9377 17.3316 1.99219 19.2159 1.80377C20.2567 1.74394 21.2707 2.14747 21.9858 2.90606C22.8322 3.69169 23.2163 4.85658 23.0033 5.99156Z" fill="#363636"/>
</svg>
