<svg viewBox="0 0 20 22" fill="none" xmlns="http://www.w3.org/2000/svg">
<path d="M19.759 7.51073L10.3614 0.61838C10.174 0.46054 9.87952 0.46054 9.6921 0.61838L0.240964 7.51073C0.107095 7.61596 0 7.7738 0 7.95794V21.0587C0.0267738 21.3743 0.267738 21.6111 0.589023 21.6111H19.4378C19.759 21.6111 20 21.3743 20 21.0587V7.95794C20 7.7738 19.9197 7.61596 19.759 7.51073ZM12.2088 20.5062H7.81794V14.0348H12.2088V20.5062ZM18.8755 20.5062H13.3333V13.4823C13.3333 13.1667 13.0924 12.9299 12.7711 12.9299H7.25569C6.9344 12.9299 6.69344 13.1667 6.69344 13.4823V20.5062H1.15127V8.22101L10.0134 1.74957L18.8755 8.22101V20.5062Z" fill="currentColor"/>
</svg>
