<svg viewBox="0 0 18 24" fill="none" xmlns="http://www.w3.org/2000/svg">
<path d="M9.02739 0.21875C4.55784 0.21875 0.90625 3.72428 0.90625 8.01504C0.90625 10.2586 1.9287 12.418 3.65225 13.8763C4.93761 15.1102 4.82076 17.7464 4.79154 17.7744C4.79154 17.9146 4.82076 18.0268 4.93761 18.139C5.02524 18.2231 5.17131 18.2792 5.28816 18.2792H12.7374C12.8835 18.2792 13.0003 18.2231 13.088 18.139C13.1756 18.0549 13.234 17.9146 13.234 17.7744C13.234 17.7464 13.088 15.1102 14.3733 13.8763C14.4025 13.8482 14.4317 13.8202 14.461 13.7921C16.1553 12.3058 17.1485 10.2025 17.1485 8.01504C17.1485 3.72428 13.4969 0.21875 9.02739 0.21875ZM13.7014 13.1471C13.6722 13.1752 13.6138 13.2313 13.6138 13.2593C12.4745 14.4372 12.27 16.3722 12.2408 17.2977H5.78477C5.75556 16.3722 5.55107 14.353 4.32414 13.1471C2.77586 11.8571 1.87027 9.97814 1.87027 7.987C1.87027 4.20103 5.05446 1.14421 8.99817 1.14421C12.9419 1.14421 16.1261 4.20103 16.1261 7.987C16.1261 9.97814 15.2497 11.8571 13.7014 13.1471Z" fill="currentColor"/>
<path d="M12.2395 18.8125H5.75428C5.08239 18.8125 4.52734 19.3453 4.52734 19.9904C4.52734 20.6354 5.08239 21.1682 5.75428 21.1682H12.2103C12.9114 21.1402 13.4665 20.6354 13.4665 19.9904C13.4665 19.3453 12.9114 18.8125 12.2395 18.8125ZM12.2395 20.1867H5.75428C5.63743 20.1867 5.52058 20.1025 5.52058 19.9623C5.52058 19.8221 5.60822 19.738 5.75428 19.738H12.2103C12.3272 19.738 12.444 19.8221 12.444 19.9623C12.444 20.1025 12.3564 20.1867 12.2395 20.1867Z" fill="currentColor"/>
<path d="M11.2763 21.6445H6.71912C6.04723 21.6445 5.49219 22.1774 5.49219 22.8224C5.49219 23.4674 6.04723 24.0002 6.71912 24.0002H11.2763C11.9482 24.0002 12.5032 23.4674 12.5032 22.8224C12.5032 22.1493 11.9482 21.6445 11.2763 21.6445ZM11.2763 23.0187H6.71912C6.60227 23.0187 6.48542 22.9346 6.48542 22.7943C6.48542 22.6541 6.57306 22.57 6.71912 22.57H11.2763C11.3932 22.57 11.51 22.6541 11.51 22.7943C11.51 22.9346 11.3932 23.0187 11.2763 23.0187Z" fill="currentColor"/>
</svg>
