<svg viewBox="0 0 25 24" fill="none" xmlns="http://www.w3.org/2000/svg">
<path d="M23.9913 16.4709L20.8594 4.32169C20.814 4.15526 20.6678 4.03926 20.4913 4.03926C20.4862 4.03926 20.4862 4.03926 20.4812 4.03926C20.4761 4.03926 20.4711 4.03926 20.4661 4.03926H12.3817V1.28059C12.3817 1.07382 12.2102 0.902344 12.0034 0.902344C11.7967 0.902344 11.6252 1.07382 11.6252 1.28059V4.03926H3.41476C3.40971 4.03926 3.40467 4.03926 3.39963 4.03926C3.39458 4.03926 3.39458 4.03926 3.38954 4.03926C3.21807 4.03926 3.06677 4.1603 3.02642 4.32673L0.0155903 16.476C-0.0146693 16.5869 0.0155903 16.708 0.0861961 16.7988C0.156802 16.8895 0.267754 16.945 0.383749 16.945H6.52645C6.64245 16.945 6.7534 16.8895 6.82401 16.7988C6.89461 16.708 6.91983 16.5869 6.88957 16.4709L3.88378 4.8008H11.6252V22.3413H9.01279C8.80601 22.3413 8.63454 22.5128 8.63454 22.7196C8.63454 22.9263 8.80601 23.0978 9.01279 23.0978H14.9991C15.2059 23.0978 15.3774 22.9263 15.3774 22.7196C15.3774 22.5128 15.2059 22.3413 14.9991 22.3413H12.3867V4.8008H20.0172L17.1577 16.481C17.1325 16.592 17.1577 16.713 17.2283 16.8038C17.2989 16.8946 17.4098 16.9501 17.5258 16.9501H23.6282C23.7442 16.9501 23.8551 16.8946 23.9257 16.8038C23.9963 16.708 24.0216 16.5869 23.9913 16.4709ZM6.03726 16.1885H0.86286L3.39963 5.96075L6.03726 16.1885ZM18.0049 16.1885L20.5064 5.97084L23.139 16.1885H18.0049Z" fill="currentColor"/>
</svg>
