<svg viewBox="0 0 48 39" fill="none" xmlns="http://www.w3.org/2000/svg">
<g clip-path="url(#clip0)">
<path d="M33.4939 38.1176L11.9998 9.87594H5.0109C3.68192 9.87594 2.40738 9.35569 1.46766 8.42964C0.527932 7.50359 0 6.2476 0 4.93797C0 3.62834 0.527932 2.37235 1.46766 1.4463C2.40738 0.520249 3.68192 0 5.0109 0L17.0107 0L33.4939 21.6578L38.9795 14.4501C39.3743 13.9313 39.869 13.4942 40.4352 13.1638C41.0014 12.8335 41.6281 12.6162 42.2796 12.5245C42.931 12.4328 43.5944 12.4684 44.2318 12.6294C44.8693 12.7903 45.4683 13.0734 45.9948 13.4625C46.5212 13.8515 46.9647 14.339 47.3 14.897C47.6352 15.455 47.8557 16.0726 47.9488 16.7145C48.0418 17.3564 48.0057 18.0102 47.8423 18.6383C47.679 19.2665 47.3918 19.8568 46.9969 20.3756L33.4939 38.1176Z" fill="url(#paint0_linear)"/>
<path d="M14.5052 38.1176L1.0022 20.3756C0.204816 19.3279 -0.137563 18.011 0.0503825 16.7145C0.238328 15.418 0.941201 14.2482 2.00438 13.4625C3.06756 12.6767 4.40395 12.3393 5.71957 12.5245C7.03518 12.7097 8.22225 13.4024 9.01964 14.4501L14.5052 21.6578L30.9885 0H42.9882C44.3172 0 45.5918 0.520249 46.5315 1.4463C47.4712 2.37235 47.9991 3.62834 47.9991 4.93797C47.9991 6.2476 47.4712 7.50359 46.5315 8.42964C45.5918 9.35569 44.3172 9.87594 42.9882 9.87594H35.9994L14.5052 38.1176Z" fill="url(#paint1_linear)"/>
</g>
<defs>
<linearGradient id="paint0_linear" x1="38.212" y1="35.433" x2="14.5343" y2="-6.18289" gradientUnits="userSpaceOnUse">
<stop stop-color="#F0CD14"/>
<stop offset="0.5" stop-color="#D9AE03"/>
<stop offset="1" stop-color="#F0CD14"/>
</linearGradient>
<linearGradient id="paint1_linear" x1="5.15421" y1="27.5339" x2="47.4838" y2="2.73371" gradientUnits="userSpaceOnUse">
<stop stop-color="#F0CD14"/>
<stop offset="1" stop-color="#F0CD14"/>
</linearGradient>
<clipPath id="clip0">
<rect width="48" height="38.1176" fill="white"/>
</clipPath>
</defs>
</svg>
