<svg viewBox="0 0 22 18" fill="none" xmlns="http://www.w3.org/2000/svg">
<path d="M21.1516 7.69016H20.8029V3.49124C20.8029 3.39447 20.7662 3.30166 20.7009 3.23323C20.6355 3.1648 20.5469 3.12636 20.4545 3.12636H19.692V0.364887C19.692 0.268113 19.6553 0.175303 19.5899 0.106873C19.5246 0.0384435 19.436 0 19.3436 0H2.34069C1.85267 0.000551917 1.38479 0.203864 1.03971 0.565327C0.694625 0.92679 0.500527 1.41688 0.5 1.92807V14.5926C0.500895 15.279 0.761614 15.937 1.22499 16.4224C1.68837 16.9078 2.31659 17.1809 2.9719 17.1818H20.4549C20.5473 17.1818 20.6359 17.1434 20.7013 17.0749C20.7666 17.0065 20.8033 16.9137 20.8033 16.8169V12.6186H21.1516C21.244 12.6186 21.3326 12.5802 21.398 12.5118C21.4633 12.4433 21.5 12.3505 21.5 12.2538V8.05505C21.5 7.95827 21.4633 7.86546 21.398 7.79703C21.3326 7.7286 21.244 7.69016 21.1516 7.69016ZM2.34069 0.730609H18.9959V3.12636H2.34069C2.03728 3.12636 1.74631 3.00011 1.53177 2.77538C1.31723 2.55066 1.1967 2.24587 1.1967 1.92807C1.1967 1.61026 1.31723 1.30547 1.53177 1.08075C1.74631 0.856023 2.03728 0.729775 2.34069 0.729775V0.730609ZM20.1062 16.452H2.9719C2.50106 16.4515 2.04965 16.2553 1.71673 15.9066C1.38382 15.5578 1.19658 15.0849 1.19611 14.5917V3.43578C1.52097 3.70801 1.92465 3.85626 2.34069 3.85613H20.1068V7.69016H17.999C17.6882 7.68716 17.38 7.74869 17.092 7.87119C16.8041 7.99369 16.5422 8.17472 16.3214 8.40385C16.1007 8.63297 15.9254 8.90564 15.8058 9.2061C15.6862 9.50657 15.6247 9.82887 15.6247 10.1544C15.6247 10.4799 15.6862 10.8022 15.8058 11.1027C15.9254 11.4032 16.1007 11.6758 16.3214 11.905C16.5422 12.1341 16.8041 12.3151 17.092 12.4376C17.38 12.5601 17.6882 12.6216 17.999 12.6186H20.1062V16.452ZM20.8029 11.888H17.999C17.78 11.8905 17.5627 11.8475 17.3597 11.7615C17.1567 11.6755 16.972 11.5481 16.8163 11.3868C16.6606 11.2255 16.537 11.0334 16.4526 10.8217C16.3683 10.6101 16.3249 10.383 16.3249 10.1536C16.3249 9.92418 16.3683 9.69707 16.4526 9.48538C16.537 9.2737 16.6606 9.08164 16.8163 8.92033C16.972 8.75902 17.1567 8.63166 17.3597 8.54563C17.5627 8.45959 17.78 8.41658 17.999 8.4191H20.8033L20.8029 11.888Z" fill="currentColor"/>
</svg>
