<svg viewBox="0 0 12 4" fill="none" xmlns="http://www.w3.org/2000/svg">
<path d="M3 2C3 2.82843 2.32843 3.5 1.5 3.5C0.671573 3.5 0 2.82843 0 2C0 1.17157 0.671573 0.5 1.5 0.5C2.32843 0.5 3 1.17157 3 2Z" fill="currentColor"/>
<path d="M7.5 2C7.5 2.82843 6.82843 3.5 6 3.5C5.17157 3.5 4.5 2.82843 4.5 2C4.5 1.17157 5.17157 0.5 6 0.5C6.82843 0.5 7.5 1.17157 7.5 2Z" fill="currentColor"/>
<path d="M12 2C12 2.82843 11.3284 3.5 10.5 3.5C9.67157 3.5 9 2.82843 9 2C9 1.17157 9.67157 0.5 10.5 0.5C11.3284 0.5 12 1.17157 12 2Z" fill="currentColor"/>
</svg>
