<svg viewBox="0 0 140 19" fill="none" xmlns="http://www.w3.org/2000/svg">
<path d="M1.13687 4.88126C1.04091 4.64046 0.993135 4.38318 0.996236 4.12398C0.99876 3.87839 1.04845 3.63556 1.1426 3.40871C1.24083 3.17836 1.38375 2.96977 1.56311 2.795C1.74246 2.62023 1.95468 2.48276 2.1875 2.39053C2.43076 2.29479 2.68972 2.24516 2.95114 2.24417C3.45091 2.24157 3.93138 2.43696 4.2875 2.78762C4.46956 2.96754 4.60763 3.18705 4.69095 3.42908L8.79739 15.2183L9.46939 15.4996C9.56556 15.7424 9.61125 16.0022 9.60367 16.2633C9.59683 16.5133 9.54307 16.7598 9.44521 16.99C9.34714 17.2184 9.20607 17.4258 9.02967 17.6009C8.84817 17.7814 8.63159 17.9229 8.3933 18.0164C8.15244 18.1122 7.8952 18.1599 7.63603 18.1571C7.39222 18.1553 7.15118 18.1052 6.92683 18.0098C6.70248 17.9143 6.49927 17.7753 6.32895 17.6009C6.14525 17.4154 5.99993 17.1954 5.90131 16.9537L1.13687 4.88126ZM9.49357 16.9531C9.39493 17.1947 9.24986 17.4145 9.06658 17.6003C8.89374 17.7751 8.68808 17.9142 8.4614 18.0094C8.23472 18.1035 7.99216 18.1534 7.74676 18.1564C7.48759 18.1593 7.23036 18.1115 6.98949 18.0158C6.75112 17.9224 6.53452 17.7809 6.35313 17.6003C5.99507 17.247 5.79085 16.7668 5.78486 16.2639C5.7817 16.0026 5.82946 15.7433 5.92549 15.5003L6.61022 15.2183L9.55467 6.97107C9.62252 6.76053 9.73767 6.56832 9.8913 6.40917C10.0396 6.25562 10.2184 6.13487 10.4163 6.05471C10.6201 5.97249 10.838 5.93098 11.0578 5.93253C11.2834 5.9321 11.5071 5.97353 11.7177 6.05471C11.9173 6.12874 12.0932 6.2554 12.2267 6.42126C12.3449 6.57696 12.4282 6.75621 12.4711 6.94689C12.5159 7.15378 12.522 7.36717 12.4889 7.57626C12.4564 7.79973 12.3992 8.01892 12.3184 8.2298L9.49357 16.9531ZM9.88494 8.21835C9.79647 8.01157 9.73694 7.79357 9.70803 7.57053C9.67889 7.36334 9.68491 7.15272 9.72585 6.94753C9.76561 6.75406 9.8492 6.57228 9.97021 6.41617C10.1018 6.25007 10.2747 6.12147 10.4717 6.04326C10.6801 5.96238 10.9017 5.92095 11.1252 5.92107C11.3433 5.91973 11.5595 5.96124 11.7616 6.04326C11.9607 6.12446 12.1415 6.24502 12.2929 6.39771C12.4506 6.55693 12.5716 6.74871 12.6474 6.95962L15.6886 15.2183L16.3726 15.4996C16.4688 15.7424 16.5145 16.0022 16.5069 16.2633C16.5001 16.5133 16.4463 16.7598 16.3485 16.99C16.2504 17.2184 16.1093 17.4258 15.9329 17.6009C15.7513 17.7813 15.5348 17.9228 15.2966 18.0164C15.0555 18.1121 14.798 18.1599 14.5387 18.1571C14.2948 18.1553 14.0538 18.1052 13.8294 18.0098C13.6051 17.9143 13.4019 17.7753 13.2316 17.6009C13.0479 17.4154 12.9026 17.1954 12.8039 16.9537L9.88494 8.21835ZM16.3975 16.9531C16.2984 17.1947 16.1529 17.4146 15.9692 17.6003C15.7967 17.7753 15.5912 17.9143 15.3646 18.0094C15.138 18.1036 14.8954 18.1535 14.65 18.1564C14.3908 18.16 14.1334 18.1131 13.8921 18.0183C13.6539 17.9247 13.4373 17.7833 13.2557 17.6028C13.0791 17.4279 12.938 17.2204 12.8402 16.9919C12.742 16.7618 12.6883 16.5152 12.6817 16.2652C12.6747 16.003 12.7246 15.7425 12.8281 15.5015L13.5014 15.2183L17.6066 3.4278C17.7127 3.12906 17.9038 2.86784 18.1564 2.67626C18.4019 2.48799 18.6927 2.36791 18.9995 2.32817C19.1761 2.27806 19.3596 2.25658 19.543 2.26453C19.7379 2.27349 19.9299 2.31478 20.1113 2.38671C20.3442 2.47869 20.5566 2.61608 20.736 2.79088C20.9154 2.96567 21.0582 3.17439 21.1562 3.40489C21.3493 3.87632 21.3516 4.40436 21.1625 4.87744L16.3975 16.9531Z" fill="currentColor"/>
<path d="M19.8673 12.04C19.8638 11.2302 20.028 10.4285 20.3497 9.68541C20.6596 8.96168 21.1055 8.3041 21.6631 7.74832C22.2226 7.19267 22.8817 6.74731 23.6059 6.4355C24.3536 6.11719 25.1578 5.95312 25.9703 5.95312C26.7829 5.95312 27.5871 6.11719 28.3347 6.4355C29.796 7.05628 30.9594 8.21972 31.5802 9.68095C31.8989 10.4284 32.0632 11.2325 32.0632 12.045C32.0632 12.8576 31.8989 13.6617 31.5802 14.4091C30.9589 15.87 29.7956 17.0333 28.3347 17.6546C27.5871 17.9729 26.7829 18.137 25.9703 18.137C25.1578 18.137 24.3536 17.9729 23.6059 17.6546C22.8821 17.3443 22.223 16.9007 21.6631 16.3469C21.1055 15.7913 20.6596 15.1339 20.3497 14.4104C20.0267 13.6621 19.8625 12.855 19.8673 12.04ZM23.716 12.0463C23.7147 12.3586 23.7728 12.6683 23.8872 12.9589C23.996 13.2401 24.1578 13.4978 24.3638 13.718C24.5665 13.9343 24.8092 14.1091 25.0785 14.2329C25.357 14.3579 25.6589 14.4225 25.9643 14.4225C26.2696 14.4225 26.5715 14.3579 26.8501 14.2329C27.1194 14.1091 27.3621 13.9343 27.5647 13.718C27.7708 13.4978 27.9326 13.2401 28.0414 12.9589C28.1555 12.6682 28.2136 12.3586 28.2125 12.0463C28.214 11.7359 28.1559 11.428 28.0414 11.1395C27.9325 10.8619 27.7706 10.6081 27.5647 10.3924C27.3605 10.1795 27.1181 10.0068 26.8501 9.88331C26.5715 9.7583 26.2696 9.69367 25.9643 9.69367C25.6589 9.69367 25.357 9.7583 25.0785 9.88331C24.8105 10.0068 24.5681 10.1795 24.3638 10.3924C24.158 10.6081 23.9961 10.8619 23.8872 11.1395C23.7724 11.428 23.7143 11.7359 23.716 12.0463Z" fill="currentColor"/>
<path d="M32.9141 7.00839C32.9141 6.30797 33.2686 5.95776 33.9775 5.95776C34.3127 5.94671 34.6398 6.0621 34.8939 6.28103C35.1378 6.49739 35.3414 6.85376 35.5048 7.35012L36.2862 9.57421L36.7508 9.61048V16.2191C36.753 16.4773 36.7009 16.7332 36.598 16.97C36.4991 17.1979 36.3581 17.4052 36.1825 17.5809C36.0054 17.7582 35.795 17.8987 35.5633 17.9941C35.3316 18.0896 35.0833 18.1382 34.8328 18.1371C34.5729 18.1388 34.3154 18.0891 34.0749 17.9907C33.8453 17.8974 33.6374 17.7579 33.4639 17.5809C33.292 17.4048 33.1553 17.1974 33.0611 16.97C32.962 16.7322 32.912 16.4768 32.9141 16.2191V7.00839ZM35.3209 7.6683C35.527 7.4642 35.7455 7.27294 35.975 7.09557C36.2222 6.90307 36.4858 6.73272 36.7629 6.58648C37.0534 6.43474 37.3558 6.30704 37.6671 6.20467C37.9919 6.09691 38.328 6.02709 38.6688 5.99658C39.031 5.99076 39.3931 6.01738 39.7506 6.07612C40.1213 6.1325 40.4816 6.24359 40.8197 6.40576C41.1346 6.55659 41.412 6.77572 41.6317 7.04721C41.8472 7.3166 41.9552 7.65069 41.9556 8.04948C41.9573 8.31126 41.8943 8.56941 41.7723 8.80103C41.6578 9.02357 41.4998 9.22091 41.3078 9.38139C41.1182 9.53316 40.9001 9.64526 40.6663 9.71102C40.3963 9.78132 40.118 9.81429 39.839 9.80902C39.5366 9.79981 39.2348 9.77325 38.9354 9.72948C38.6287 9.68469 38.316 9.7075 38.019 9.7963C37.6318 9.93134 37.3107 10.209 37.1211 10.5727C36.904 10.983 36.7769 11.4349 36.7482 11.8982L35.3209 7.6683Z" fill="currentColor"/>
<path d="M42.5821 4.06321C42.5798 3.80534 42.6299 3.54968 42.7291 3.31167C42.8224 3.08549 42.9593 2.87986 43.1319 2.70648C43.3078 2.53258 43.5151 2.39372 43.7428 2.2973C43.9823 2.1948 44.2403 2.14281 44.5007 2.14457C44.755 2.14332 45.0067 2.19535 45.2396 2.2973C45.4663 2.39561 45.6733 2.53425 45.8505 2.70648C46.0268 2.87943 46.168 3.08496 46.266 3.31167C46.3689 3.54876 46.4209 3.80478 46.4187 4.06321V16.2178C46.4209 16.476 46.3689 16.7318 46.266 16.9687C46.1671 17.1966 46.0261 17.4038 45.8505 17.5796C45.6734 17.7569 45.463 17.8973 45.2313 17.9928C44.9996 18.0883 44.7513 18.1369 44.5007 18.1358C44.2409 18.1375 43.9833 18.0877 43.7428 17.9894C43.5133 17.896 43.3054 17.7565 43.1319 17.5796C42.96 17.4034 42.8233 17.1961 42.7291 16.9687C42.6299 16.7308 42.5799 16.4754 42.5821 16.2178V4.06321Z" fill="currentColor"/>
<path d="M58.2568 12.0539C58.262 12.8577 58.1425 13.6573 57.9023 14.4244C57.6853 15.1299 57.3349 15.7873 56.8702 16.3608C56.4187 16.9102 55.8544 17.3562 55.2156 17.6686C54.564 17.9901 53.8186 18.1509 52.9794 18.1509C52.1839 18.16 51.396 17.9954 50.6707 17.6686C49.9862 17.3584 49.3712 16.9137 48.8622 16.3608C48.3485 15.797 47.9481 15.1396 47.683 14.4244C47.1213 12.8962 47.1213 11.218 47.683 9.68984C47.9502 8.97568 48.3503 8.31861 48.8622 7.75339C49.3693 7.19688 49.9841 6.74916 50.6694 6.43739C51.3947 6.11028 52.1826 5.94565 52.9782 5.95502C53.639 5.96109 54.2887 6.12657 54.872 6.43739C55.5113 6.76874 56.0849 7.21383 56.5647 7.75084C57.0773 8.32355 57.4903 8.9781 57.7865 9.6873C58.1023 10.4361 58.2623 11.2413 58.2568 12.0539ZM55.6178 12.0539C55.6189 11.7419 55.5586 11.4327 55.4402 11.1439C55.3292 10.8661 55.1676 10.6113 54.9636 10.3924C54.7608 10.1778 54.5181 10.0048 54.249 9.8833C53.9693 9.75605 53.6653 9.69092 53.3581 9.69239C53.0524 9.69029 52.75 9.75546 52.4723 9.8833C52.2041 10.0068 51.9615 10.1795 51.757 10.3924C51.5504 10.6092 51.3887 10.8646 51.281 11.1439C51.0527 11.7294 51.0527 12.3792 51.281 12.9646C51.3895 13.2452 51.5511 13.5023 51.757 13.7218C51.96 13.9376 52.2029 14.112 52.4723 14.2354C52.75 14.3632 53.0524 14.4284 53.3581 14.4263C53.6653 14.4278 53.9693 14.3626 54.249 14.2354C54.5193 14.1139 54.7623 13.9393 54.9636 13.7218C55.1669 13.5002 55.3283 13.2437 55.4402 12.9646C55.5593 12.6758 55.6203 12.3663 55.6197 12.0539H55.6178ZM55.6178 4.00266C55.6153 3.7442 55.6674 3.48811 55.7705 3.25112C55.8692 3.02324 56.01 2.81599 56.1854 2.64021C56.3605 2.46536 56.568 2.32637 56.7963 2.23103C57.0304 2.13264 57.2819 2.08264 57.5358 2.08402C57.7953 2.08236 58.0525 2.13233 58.2924 2.23103C58.5221 2.32386 58.7301 2.46317 58.9033 2.64021C59.0753 2.81648 59.2122 3.02379 59.3068 3.25112C59.4054 3.48929 59.4552 3.74487 59.4531 4.00266V17.1003C59.4531 17.4427 59.3658 17.7034 59.191 17.8824C59.0162 18.0614 58.7534 18.1509 58.4025 18.1509C58.0567 18.1587 57.7215 18.0315 57.4677 17.7965C57.2132 17.5606 57.0116 17.2144 56.8632 16.7579L56.0811 14.8278L55.6172 14.803L55.6178 4.00266Z" fill="currentColor"/>
<path d="M64.9142 12.04C64.9107 11.2302 65.0749 10.4285 65.3965 9.68541C65.7065 8.96168 66.1523 8.3041 66.71 7.74832C67.2695 7.19267 67.9285 6.74731 68.6528 6.4355C69.4004 6.11719 70.2046 5.95312 71.0172 5.95312C71.8297 5.95312 72.6339 6.11719 73.3816 6.4355C74.8428 7.05628 76.0062 8.21972 76.627 9.68095C76.9457 10.4284 77.11 11.2325 77.11 12.045C77.11 12.8576 76.9457 13.6617 76.627 14.4091C76.0057 15.87 74.8425 17.0333 73.3816 17.6546C72.6339 17.9729 71.8297 18.137 71.0172 18.137C70.2046 18.137 69.4004 17.9729 68.6528 17.6546C67.929 17.3443 67.2699 16.9007 66.71 16.3469C66.1524 15.7913 65.7065 15.1339 65.3965 14.4104C65.0736 13.6621 64.9093 12.855 64.9142 12.04ZM68.7629 12.0463C68.7616 12.3586 68.8197 12.6683 68.9341 12.9589C69.0425 13.2403 69.2044 13.498 69.4107 13.718C69.6133 13.9344 69.856 14.1092 70.1253 14.2329C70.4039 14.3579 70.7058 14.4225 71.0111 14.4225C71.3165 14.4225 71.6184 14.3579 71.8969 14.2329C72.1661 14.1089 72.4088 13.9341 72.6116 13.718C72.8174 13.4977 72.9792 13.24 73.0882 12.9589C73.2023 12.6682 73.2604 12.3586 73.2594 12.0463C73.2608 11.7359 73.2027 11.428 73.0882 11.1395C72.9791 10.862 72.8172 10.6083 72.6116 10.3924C72.4072 10.1796 72.1648 10.007 71.8969 9.88331C71.6184 9.7583 71.3165 9.69367 71.0111 9.69367C70.7058 9.69367 70.4039 9.7583 70.1253 9.88331C69.8573 10.0066 69.6148 10.1793 69.4107 10.3924C69.2046 10.608 69.0427 10.8618 68.9341 11.1395C68.8193 11.428 68.7612 11.7359 68.7629 12.0463Z" fill="currentColor"/>
<path d="M84.3395 7.14018C84.5684 7.13888 84.7952 7.18458 85.0057 7.27445C85.2089 7.36134 85.395 7.4835 85.5555 7.63527C85.7159 7.78868 85.8427 7.97374 85.9278 8.17872C86.0186 8.39528 86.0645 8.628 86.0627 8.86281C86.0641 9.09182 86.0182 9.31865 85.9278 9.52909C85.7502 9.94343 85.4201 10.2736 85.0057 10.4512C84.7953 10.5413 84.5684 10.5871 84.3395 10.5854H78.9024C78.6749 10.5877 78.4493 10.5438 78.2392 10.4563C78.0292 10.3687 77.8392 10.2395 77.6806 10.0764C77.5258 9.91705 77.4015 9.73069 77.314 9.52654C77.2238 9.31607 77.1781 9.08924 77.1797 8.86027C77.1778 8.6255 77.2234 8.39278 77.314 8.17618C77.3985 7.97226 77.5231 7.78744 77.6806 7.63272C77.8382 7.47997 78.0226 7.35764 78.2247 7.2719C78.439 7.18122 78.6697 7.13552 78.9024 7.13763L84.3395 7.14018ZM86.3924 3.47472C86.3971 3.82406 86.3017 4.16745 86.1175 4.46427C85.939 4.75333 85.6828 4.98624 85.378 5.13627C85.1177 5.22599 84.8606 5.30363 84.6086 5.36854C84.369 5.42849 84.1402 5.52532 83.9303 5.65554C83.7216 5.79237 83.553 5.98209 83.4416 6.20536C83.3143 6.4459 83.247 6.7853 83.2398 7.22354V16.2185C83.2417 16.4703 83.1919 16.7199 83.0935 16.9516C82.996 17.1788 82.8573 17.3859 82.6843 17.5625C82.5097 17.741 82.3022 17.884 82.0734 17.9838C81.8363 18.0866 81.5803 18.1386 81.3218 18.1365C81.0609 18.1383 80.8027 18.084 80.5646 17.9774C80.1056 17.7776 79.742 17.4076 79.5502 16.9453C79.4528 16.7154 79.4031 16.4682 79.4038 16.2185V7.5309C79.3944 6.70753 79.5118 5.88762 79.7519 5.1C79.9603 4.41155 80.3007 3.77026 80.7542 3.2119C81.1867 2.68943 81.7319 2.27171 82.3489 1.99009C82.976 1.70118 83.6846 1.55672 84.475 1.55672C84.7326 1.55434 84.9881 1.60413 85.2259 1.70309C85.453 1.7975 85.6589 1.93666 85.8311 2.11227C86.0034 2.28939 86.1421 2.4964 86.2403 2.72318C86.3428 2.96034 86.3947 3.21634 86.3924 3.47472Z" fill="currentColor"/>
<path d="M101.799 7.45812C101.612 7.28842 101.416 7.11872 101.213 6.94903C101.005 6.77975 100.782 6.63059 100.547 6.50357C100.297 6.36962 100.033 6.26499 99.7591 6.19175C99.4474 6.11102 99.1264 6.07208 98.8045 6.07593C98.2531 6.07193 97.7073 6.18652 97.2041 6.41193C96.7173 6.62863 96.2758 6.9352 95.9027 7.31557C95.529 7.69871 95.2305 8.14855 95.0226 8.64175C94.8093 9.14836 94.6994 9.69251 94.6994 10.2422C94.6994 10.7919 94.8093 11.3361 95.0226 11.8427C95.4417 12.8377 96.2269 13.6336 97.2162 14.0661C97.7172 14.2874 98.2594 14.4 98.8071 14.3964C99.1672 14.4022 99.5259 14.3506 99.8698 14.2437C100.17 14.1462 100.457 14.0128 100.725 13.8466C100.99 13.6808 101.243 13.4971 101.483 13.2968C101.727 13.0931 101.988 12.8855 102.264 12.6738C102.432 12.5741 102.613 12.4999 102.802 12.4536C102.996 12.4049 103.195 12.3822 103.395 12.3861C103.595 12.3907 103.793 12.4279 103.981 12.4962C104.175 12.567 104.352 12.6773 104.501 12.8201C104.704 12.9845 104.867 13.1933 104.977 13.4304C105.088 13.6676 105.142 13.9268 105.137 14.1883C105.137 14.4324 105.094 14.6746 105.01 14.9036C104.914 15.1503 104.766 15.3733 104.576 15.5571C104.219 15.9872 103.82 16.3802 103.384 16.7299C102.982 17.0505 102.54 17.3195 102.071 17.5305C101.59 17.7432 101.086 17.8989 100.569 17.9944C99.9881 18.1 99.399 18.1511 98.809 18.1471C97.7466 18.1548 96.694 17.9427 95.7175 17.5241C93.8153 16.7139 92.3004 15.199 91.4902 13.2968C90.7999 11.6545 90.6794 9.82846 91.1478 8.10975C91.3318 7.44658 91.6009 6.81002 91.9484 6.21593C92.2922 5.62869 92.711 5.08875 93.1944 4.60975C93.6765 4.13138 94.2163 3.71476 94.8012 3.36948C95.395 3.02007 96.0315 2.74905 96.695 2.5632C97.3829 2.36992 98.0944 2.27312 98.809 2.27557C99.3617 2.2722 99.9136 2.31734 100.458 2.41048C100.953 2.49703 101.435 2.64252 101.894 2.84384C102.352 3.04724 102.784 3.30353 103.183 3.60748C103.617 3.94257 104.019 4.31916 104.38 4.73193C104.546 4.9186 104.68 5.13095 104.777 5.36066C104.872 5.59173 104.924 5.83827 104.93 6.08802C104.943 6.32243 104.901 6.55659 104.808 6.77212C104.708 7.01978 104.558 7.24436 104.368 7.43203C104.216 7.57493 104.042 7.69438 103.855 7.78648C103.66 7.88382 103.449 7.94177 103.232 7.95703C102.996 7.97161 102.76 7.9427 102.536 7.87175C102.265 7.78515 102.014 7.64443 101.799 7.45812Z" fill="currentColor"/>
<path d="M106.004 4.06393C106.002 3.80606 106.052 3.5504 106.151 3.31239C106.245 3.08617 106.382 2.88054 106.554 2.7072C106.73 2.53425 106.938 2.39645 107.165 2.30121C107.405 2.19877 107.663 2.14678 107.923 2.14848C108.177 2.14717 108.429 2.1992 108.662 2.30121C108.889 2.39951 109.096 2.53815 109.273 2.71039C109.45 2.88319 109.591 3.08875 109.689 3.31557C109.791 3.55267 109.843 3.80868 109.841 4.06711V16.2217C109.843 16.4799 109.791 16.7357 109.689 16.9726C109.59 17.2006 109.449 17.4079 109.273 17.5835C109.096 17.7608 108.885 17.9012 108.654 17.9967C108.422 18.0922 108.174 18.1408 107.923 18.1397C107.663 18.1413 107.406 18.0915 107.165 17.9933C106.936 17.9001 106.728 17.7606 106.555 17.5835C106.383 17.4074 106.246 17.2 106.152 16.9726C106.052 16.7347 106.002 16.4793 106.005 16.2217L106.004 4.06393Z" fill="currentColor"/>
<path d="M111.16 2.69384C111.159 2.4336 111.211 2.17581 111.313 1.93657C111.411 1.70617 111.552 1.49664 111.729 1.3193C111.907 1.14235 112.118 1.00317 112.352 0.910117C112.598 0.811102 112.862 0.761376 113.127 0.763753C113.389 0.762217 113.648 0.81194 113.891 0.910117C114.125 1.00434 114.339 1.14332 114.52 1.3193C114.7 1.49555 114.843 1.70526 114.942 1.93657C115.044 2.17581 115.096 2.4336 115.094 2.69384C115.097 2.95828 115.045 3.22039 114.942 3.46384C114.844 3.69384 114.701 3.90166 114.52 4.07475C114.338 4.24772 114.124 4.38442 113.891 4.47757C113.648 4.57595 113.389 4.62589 113.127 4.62457C112.862 4.62665 112.598 4.57671 112.352 4.47757C112.119 4.38654 111.908 4.24993 111.73 4.07582C111.551 3.90171 111.41 3.69362 111.313 3.46384C111.21 3.22039 111.158 2.95828 111.16 2.69384ZM111.258 7.84839C111.256 7.59056 111.306 7.33491 111.405 7.09684C111.498 6.87079 111.635 6.6652 111.807 6.49166C111.982 6.3187 112.187 6.17992 112.413 6.08248C112.65 5.98168 112.906 5.92974 113.164 5.92974C113.422 5.92974 113.677 5.98168 113.915 6.08248C114.371 6.27793 114.735 6.64201 114.929 7.09875C115.032 7.33585 115.084 7.59187 115.082 7.8503V16.2198C115.084 16.478 115.032 16.7338 114.929 16.9707C114.831 17.1975 114.692 17.4045 114.52 17.5816C114.348 17.7576 114.142 17.897 113.914 17.9914C113.433 18.1865 112.894 18.1865 112.412 17.9914C112.185 17.897 111.979 17.7576 111.807 17.5816C111.635 17.4053 111.498 17.198 111.404 16.9707C111.305 16.7328 111.255 16.4774 111.258 16.2198L111.258 7.84839Z" fill="currentColor"/>
<path d="M126.47 7.73954C126.656 7.93794 126.812 8.16213 126.934 8.40517C127.044 8.62223 127.103 8.86178 127.105 9.10517C127.106 9.34458 127.058 9.58167 126.965 9.80199C126.875 10.0149 126.745 10.2079 126.58 10.3696C126.411 10.5326 126.209 10.6576 125.987 10.7362C125.747 10.8231 125.49 10.8544 125.236 10.8278C125.038 10.7781 124.844 10.7143 124.655 10.6369C124.464 10.5593 124.274 10.4757 124.087 10.3862C123.9 10.2967 123.711 10.2101 123.52 10.1265C123.327 10.0406 123.129 9.96515 122.928 9.90063C122.563 9.81842 122.188 9.79692 121.816 9.83699C121.459 9.87224 121.113 9.98263 120.802 10.1609C120.497 10.3388 120.243 10.5911 120.063 10.894C119.871 11.2079 119.775 11.5927 119.776 12.0484C119.776 12.4887 119.865 12.8654 120.044 13.1785C120.214 13.4828 120.458 13.7393 120.753 13.9244C121.059 14.1122 121.404 14.2289 121.761 14.2661C122.151 14.3106 122.546 14.2881 122.928 14.1993C123.213 14.1422 123.489 14.0454 123.747 13.9116C124.001 13.7809 124.246 13.632 124.48 13.4662C124.744 13.3343 125.033 13.2589 125.327 13.2447C125.637 13.2239 125.947 13.2851 126.225 13.4223C126.493 13.5597 126.718 13.769 126.873 14.0268C127.042 14.3133 127.127 14.6414 127.118 14.9737C127.112 15.3968 126.978 15.8083 126.733 16.1529C126.449 16.5578 126.087 16.9025 125.67 17.1673C125.171 17.4852 124.627 17.7261 124.057 17.8819C123.39 18.0666 122.701 18.157 122.01 18.1505C121.197 18.1557 120.392 17.9914 119.646 17.6681C118.189 17.0438 117.029 15.8812 116.408 14.4226C116.09 13.674 115.926 12.8689 115.926 12.0554C115.926 11.2419 116.09 10.4367 116.408 9.68808C116.72 8.96695 117.163 8.31024 117.715 7.75163C118.269 7.19404 118.924 6.74737 119.646 6.43562C120.392 6.11202 121.197 5.94773 122.01 5.95326C122.447 5.95276 122.883 5.9954 123.311 6.08053C123.731 6.16417 124.143 6.28688 124.54 6.44708C124.918 6.59959 125.281 6.78998 125.621 7.01535C125.933 7.22086 126.218 7.4641 126.47 7.73954Z" fill="currentColor"/>
<path d="M127.973 4.06321C127.97 3.80534 128.02 3.54968 128.12 3.31167C128.213 3.08561 128.35 2.88003 128.523 2.70648C128.698 2.53258 128.906 2.39372 129.133 2.2973C129.373 2.1948 129.631 2.14281 129.891 2.14457C130.146 2.14332 130.397 2.19535 130.63 2.2973C130.857 2.39561 131.064 2.53425 131.241 2.70648C131.418 2.87943 131.559 3.08496 131.657 3.31167C131.76 3.54876 131.812 3.80478 131.809 4.06321V16.2178C131.812 16.476 131.76 16.7318 131.657 16.9687C131.558 17.1966 131.417 17.4038 131.241 17.5796C131.064 17.7569 130.854 17.8973 130.622 17.9928C130.39 18.0883 130.142 18.1369 129.891 18.1358C129.632 18.1375 129.374 18.0877 129.133 17.9894C128.904 17.896 128.696 17.7565 128.523 17.5796C128.351 17.4033 128.214 17.196 128.12 16.9687C128.021 16.7308 127.971 16.4754 127.973 16.2178V4.06321ZM131.807 10.0641L136.291 6.6793C136.489 6.53154 136.697 6.39881 136.914 6.28221C137.134 6.16441 137.363 6.0644 137.599 5.98312C137.912 5.92681 138.235 5.95156 138.537 6.05503C138.778 6.14773 139 6.28455 139.191 6.45848C139.389 6.63558 139.541 6.85749 139.636 7.10567C139.678 7.22375 139.713 7.34424 139.741 7.46648C139.794 7.68547 139.798 7.9135 139.752 8.1342C139.707 8.3549 139.613 8.56281 139.478 8.74303C139.299 9.0185 139.071 9.25879 138.806 9.45194L136.841 10.955L139.48 15.0481C139.722 15.3117 139.872 15.6466 139.908 16.0027C139.943 16.3383 139.89 16.6772 139.755 16.9865C139.618 17.2958 139.403 17.5648 139.132 17.7679C138.85 17.9842 138.504 18.1022 138.148 18.1039C137.847 18.1365 137.543 18.0723 137.281 17.9207C137.008 17.7696 136.767 17.5664 136.572 17.3225L133.884 13.1072C133.607 13.3193 133.365 13.5026 133.157 13.657L132.607 14.0662L132.18 14.3844C132.053 14.4779 131.929 14.5753 131.807 14.6714V10.0641Z" fill="currentColor"/>
</svg>
